<svg width="25" height="25" viewBox="0 0 25 25" fill="none" xmlns="http://www.w3.org/2000/svg">
<circle cx="12.5" cy="6.5" r="1" stroke="#767676"/>
<circle cx="12.5" cy="12.5" r="1" stroke="#767676"/>
<circle cx="3.5" cy="9.5" r="1" stroke="#767676"/>
<circle cx="3.5" cy="15.5" r="1" stroke="#767676"/>
<circle cx="21.5" cy="12.5" r="1" stroke="#767676"/>
<circle cx="12.5" cy="18.5" r="1" stroke="#767676"/>
<line x1="11.197" y1="6.45957" x2="4.19696" y2="9.45957" stroke="#767676"/>
<line x1="11.197" y1="12.4596" x2="4.19696" y2="15.4596" stroke="#767676"/>
<line x1="11.3763" y1="6.32925" x2="4.37629" y2="14.3293" stroke="#767676"/>
<line x1="4.39468" y1="9.69303" x2="11.3947" y2="18.693" stroke="#767676"/>
<line x1="4.19696" y1="15.5404" x2="11.197" y2="18.5404" stroke="#767676"/>
<line x1="4.19696" y1="9.54043" x2="11.197" y2="12.5404" stroke="#767676"/>
<line x1="20.6746" y1="12.3796" x2="13.6746" y2="6.37963" stroke="#767676"/>
<line x1="13.6746" y1="18.6204" x2="20.6746" y2="12.6204" stroke="#767676"/>
<line x1="21" y1="12.5" x2="13" y2="12.5" stroke="#767676"/>
<line x1="23" y1="12.5" x2="25" y2="12.5" stroke="#767676"/>
<line y1="9.5" x2="2" y2="9.5" stroke="#767676"/>
<line y1="15.5" x2="2" y2="15.5" stroke="#767676"/>
</svg>
