<svg width="100" height="100" viewBox="0 0 100 100" fill="none" xmlns="http://www.w3.org/2000/svg">
<mask id="path-1-inside-1_29_70" fill="white">
<path d="M32.3223 67.6777C37.0107 72.3661 43.3696 75 50 75C56.6304 75 62.9893 72.3661 67.6777 67.6777C72.3661 62.9893 75 56.6304 75 50C75 43.3696 72.3661 37.0107 67.6777 32.3223L50 50L32.3223 67.6777Z"/>
</mask>
<path d="M32.3223 67.6777C37.0107 72.3661 43.3696 75 50 75C56.6304 75 62.9893 72.3661 67.6777 67.6777C72.3661 62.9893 75 56.6304 75 50C75 43.3696 72.3661 37.0107 67.6777 32.3223L50 50L32.3223 67.6777Z" fill="#1B1B1B" stroke="#1B1B1B" stroke-width="2" mask="url(#path-1-inside-1_29_70)"/>
<path d="M79.5 33C79.5 35.4853 81.5147 37.5 84 37.5C86.4853 37.5 88.5 35.4853 88.5 33C88.5 30.5147 86.4853 28.5 84 28.5C81.5147 28.5 79.5 30.5147 79.5 33Z" stroke="#1B1B1B"/>
<mask id="path-3-inside-2_29_70" fill="white">
<path d="M50 16C40.9826 16 32.3346 19.5821 25.9584 25.9584C19.5821 32.3346 16 40.9826 16 50C16 59.0174 19.5821 67.6654 25.9584 74.0416C32.3346 80.4179 40.9826 84 50 84L50 50L50 16Z"/>
</mask>
<path d="M50 16C40.9826 16 32.3346 19.5821 25.9584 25.9584C19.5821 32.3346 16 40.9826 16 50C16 59.0174 19.5821 67.6654 25.9584 74.0416C32.3346 80.4179 40.9826 84 50 84L50 50L50 16Z" stroke="#1B1B1B" stroke-width="2" mask="url(#path-3-inside-2_29_70)"/>
<line x1="49.5" y1="75" x2="49.5" y2="50" stroke="white"/>
<mask id="path-5-inside-3_29_70" fill="white">
<path d="M85.3553 14.6447C75.9785 5.26784 63.2608 -1.42268e-06 50 0C36.7392 1.42268e-06 24.0215 5.26784 14.6447 14.6447C5.26784 24.0215 -4.21515e-07 36.7392 0 50C4.21515e-07 63.2608 5.26784 75.9785 14.6447 85.3553L50 50L85.3553 14.6447Z"/>
</mask>
<path d="M85.3553 14.6447C75.9785 5.26784 63.2608 -1.42268e-06 50 0C36.7392 1.42268e-06 24.0215 5.26784 14.6447 14.6447C5.26784 24.0215 -4.21515e-07 36.7392 0 50C4.21515e-07 63.2608 5.26784 75.9785 14.6447 85.3553L50 50L85.3553 14.6447Z" stroke="#1B1B1B" stroke-width="2" mask="url(#path-5-inside-3_29_70)"/>
</svg>
